# xmcd
#
# Track frame offsets:
# 150
# 16364
# 41781
# 57308
# 75070
# 102480
# 120164
# 149706
# 166391
# 181055
# 198875
# 219877
# 235461
# 255596
#
# Disc length: 3826 seconds
#
# Revision: 0
# Processed by: cddbd v1.4PL0 Copyright (c) Steve Scherf et al.
# Submitted via: MacMP3 Pro 5.0 (http://mp3.act2.co.jp/)
#
DISCID=b50ef00e
DTITLE=The Isley Brothers - Groovy Isleys
DYEAR=1900
DGENRE=
TTITLE0=Work To Do (Live)
TTITLE1=That Lady 
TTITLE2=If You Were These
TTITLE3=Harvest For World 
TTITLE4=Coolin' Me Out(Part1&2) 
TTITLE5=So You Wanna Stay Down 
TTITLE6=Spill the Wine
TTITLE7=Love The One You're With
TTITLE8=Work To Do
TTITLE9=What It Comes Down To
TTITLE10=Fun And Games 
TTITLE11=Go For What You Know
TTITLE12=Baby Hold On
TTITLE13=Midnight Sky(Part1&2)
EXTD=
EXTT0=
EXTT1=
EXTT2=
EXTT3=
EXTT4=
EXTT5=
EXTT6=
EXTT7=
EXTT8=
EXTT9=
EXTT10=
EXTT11=
EXTT12=
EXTT13=
PLAYORDER=
